# xmcd
#
# Track frame offsets:
#	150
#	10695
#	21048
#	34046
#	51685
#	62533
#	77466
#	89805
#	101182
#	114336
#
# Disc length: 1727 seconds
#
# Revision: 0
# Processed by: cddbd v1.5PL3 Copyright (c) Steve Scherf et al.
# Submitted via: EasyCDDAExtractor 4.6.9.1
#
DISCID=7906bd0a
DTITLE=West Enr. - Ma Vie Se Cowboy
DYEAR=1900
DGENRE=Country
TTITLE0=Ma Vie Se Cowboy
TTITLE1=Par Un Beau Soir D'ete
TTITLE2=Sous Les Etoiles
TTITLE3=Une Dame Aux Cheveux Blanc
TTITLE4=Ont Est Ti-Ben (Quand Y Fait Chaud)
TTITLE5=Sweet Sweet Melodie
TTITLE6=A La Cabane
TTITLE7=Y'a Du Soleil Dans Tes Beau Yeux
TTITLE8=Le Bonheur C'est T'aimer
TTITLE9=Mon Dieu Que C'est Dure D'etre Humble
EXTD=
EXTT0=
EXTT1=
EXTT2=
EXTT3=
EXTT4=
EXTT5=
EXTT6=
EXTT7=
EXTT8=
EXTT9=
PLAYORDER=
